<svg width="30" height="43" viewBox="0 0 30 43" fill="none" xmlns="http://www.w3.org/2000/svg">
<path d="M15 0C9.41761 0 4.87926 4.57973 4.87926 10.213C4.87926 15.7388 9.16193 20.211 14.7443 20.4045C14.9148 20.383 15.0852 20.383 15.2131 20.4045H15.3622C17.9816 20.3163 20.4643 19.2036 22.2854 17.3017C24.1065 15.3998 25.1233 12.8577 25.1207 10.213C25.1207 4.57973 20.5824 0 15 0ZM25.8239 26.1217C19.8793 22.1225 10.1847 22.1225 4.19744 26.1217C1.49148 27.9492 0 30.4219 0 33.0665C0 35.7111 1.49148 38.1623 4.17614 39.9683C7.15909 41.9894 11.0795 43 15 43C18.9205 43 22.8409 41.9894 25.8239 39.9683C28.5085 38.1408 30 35.6896 30 33.0235C29.9787 30.3789 28.5085 27.9277 25.8239 26.1217Z" fill="black"/>
</svg>
