<svg width="60" height="60" viewBox="0 0 60 60" fill="none" xmlns="http://www.w3.org/2000/svg">
<path d="M37.2168 16.6409V37.5301C37.2168 38.3525 36.9768 39.1543 36.5367 39.8328L31.0762 48.1803C30.2161 49.5167 28.0759 50.4624 26.2557 49.7634C24.2955 49.0849 22.9954 46.8233 23.4155 44.8084L24.4556 38.0852C24.5356 37.4684 24.3755 36.9133 24.0355 36.4815C23.8617 36.2818 23.6491 36.1219 23.4113 36.0121C23.1736 35.9023 22.916 35.8451 22.6554 35.8441H14.4346C12.8544 35.8441 11.4943 35.1862 10.6942 34.0348C9.93417 32.9246 9.79415 31.4854 10.2942 30.0256L15.2147 14.626C15.8347 12.0766 18.535 10 21.2152 10H29.016C30.3561 10 32.2363 10.4729 33.0964 11.357L35.6566 13.3924C36.1407 13.7755 36.533 14.2675 36.8035 14.8306C37.0739 15.3937 37.2153 16.013 37.2168 16.6409ZM43.5794 41.5352H45.6396C48.7399 41.5352 50 40.3016 50 37.2587V16.5957C50 13.5528 48.7399 12.3192 45.6396 12.3192H43.5794C40.4791 12.3192 39.219 13.5528 39.219 16.5957V37.2792C39.219 40.3016 40.4791 41.5352 43.5794 41.5352Z" fill="black"/>
</svg>
