<svg width="40" height="40" viewBox="0 0 40 40" fill="none" xmlns="http://www.w3.org/2000/svg">
<path d="M27.9167 5.93325V3.33325C27.9167 2.64992 27.35 2.08325 26.6667 2.08325C25.9833 2.08325 25.4167 2.64992 25.4167 3.33325V5.83325H14.5833V3.33325C14.5833 2.64992 14.0167 2.08325 13.3333 2.08325C12.65 2.08325 12.0833 2.64992 12.0833 3.33325V5.93325C7.58333 6.34992 5.4 9.03325 5.06667 13.0166C5.03333 13.4999 5.43333 13.8999 5.9 13.8999H34.1C34.5833 13.8999 34.9833 13.4833 34.9333 13.0166C34.6 9.03325 32.4167 6.34992 27.9167 5.93325ZM33.3333 16.3999H6.66667C5.75 16.3999 5 17.1499 5 18.0666V28.3333C5 33.3333 7.5 36.6666 13.3333 36.6666H26.6667C32.5 36.6666 35 33.3333 35 28.3333V18.0666C35 17.1499 34.25 16.3999 33.3333 16.3999ZM15.35 30.3499C15.2667 30.4166 15.1833 30.4999 15.1 30.5499C15 30.6166 14.9 30.6666 14.8 30.6999C14.7 30.7499 14.6 30.7833 14.5 30.7999C14.3833 30.8166 14.2833 30.8333 14.1667 30.8333C13.95 30.8333 13.7333 30.7833 13.5333 30.6999C13.3167 30.6166 13.15 30.4999 12.9833 30.3499C12.6833 30.0332 12.5 29.5999 12.5 29.1666C12.5 28.7333 12.6833 28.2999 12.9833 27.9833C13.15 27.8333 13.3167 27.7166 13.5333 27.6333C13.8333 27.4999 14.1667 27.4666 14.5 27.5333C14.6 27.5499 14.7 27.5833 14.8 27.6333C14.9 27.6666 15 27.7166 15.1 27.7833L15.35 27.9833C15.65 28.2999 15.8333 28.7333 15.8333 29.1666C15.8333 29.5999 15.65 30.0332 15.35 30.3499ZM15.35 24.5166C15.0333 24.8166 14.6 24.9999 14.1667 24.9999C13.7333 24.9999 13.3 24.8166 12.9833 24.5166C12.6833 24.1999 12.5 23.7666 12.5 23.3333C12.5 22.8999 12.6833 22.4666 12.9833 22.1499C13.45 21.6833 14.1833 21.5333 14.8 21.7999C15.0167 21.8833 15.2 21.9999 15.35 22.1499C15.65 22.4666 15.8333 22.8999 15.8333 23.3333C15.8333 23.7666 15.65 24.1999 15.35 24.5166ZM21.1833 30.3499C20.8667 30.6499 20.4333 30.8333 20 30.8333C19.5667 30.8333 19.1333 30.6499 18.8167 30.3499C18.5167 30.0332 18.3333 29.5999 18.3333 29.1666C18.3333 28.7333 18.5167 28.2999 18.8167 27.9833C19.4333 27.3666 20.5667 27.3666 21.1833 27.9833C21.4833 28.2999 21.6667 28.7333 21.6667 29.1666C21.6667 29.5999 21.4833 30.0332 21.1833 30.3499ZM21.1833 24.5166L20.9333 24.7166C20.8333 24.7833 20.7333 24.8333 20.6333 24.8666C20.5333 24.9166 20.4333 24.9499 20.3333 24.9666C20.2167 24.9833 20.1167 24.9999 20 24.9999C19.5667 24.9999 19.1333 24.8166 18.8167 24.5166C18.5167 24.1999 18.3333 23.7666 18.3333 23.3333C18.3333 22.8999 18.5167 22.4666 18.8167 22.1499C18.9667 21.9999 19.15 21.8833 19.3667 21.7999C19.9833 21.5333 20.7167 21.6833 21.1833 22.1499C21.4833 22.4666 21.6667 22.8999 21.6667 23.3333C21.6667 23.7666 21.4833 24.1999 21.1833 24.5166ZM27.0167 30.3499C26.7 30.6499 26.2667 30.8333 25.8333 30.8333C25.4 30.8333 24.9667 30.6499 24.65 30.3499C24.35 30.0332 24.1667 29.5999 24.1667 29.1666C24.1667 28.7333 24.35 28.2999 24.65 27.9833C25.2667 27.3666 26.4 27.3666 27.0167 27.9833C27.3167 28.2999 27.5 28.7333 27.5 29.1666C27.5 29.5999 27.3167 30.0332 27.0167 30.3499ZM27.0167 24.5166L26.7667 24.7166C26.6667 24.7833 26.5667 24.8333 26.4667 24.8666C26.3667 24.9166 26.2667 24.9499 26.1667 24.9666C26.05 24.9833 25.9333 24.9999 25.8333 24.9999C25.4 24.9999 24.9667 24.8166 24.65 24.5166C24.35 24.1999 24.1667 23.7666 24.1667 23.3333C24.1667 22.8999 24.35 22.4666 24.65 22.1499C24.8167 21.9999 24.9833 21.8833 25.2 21.7999C25.5 21.6666 25.8333 21.6333 26.1667 21.6999C26.2667 21.7166 26.3667 21.7499 26.4667 21.7999C26.5667 21.8333 26.6667 21.8833 26.7667 21.9499L27.0167 22.1499C27.3167 22.4666 27.5 22.8999 27.5 23.3333C27.5 23.7666 27.3167 24.1999 27.0167 24.5166Z" fill="black"/>
</svg>
