<svg width="46" height="43" viewBox="0 0 46 43" fill="none" xmlns="http://www.w3.org/2000/svg">
<path d="M17.25 3.58337C12.2284 3.58337 8.14588 7.39962 8.14588 12.0938C8.14588 16.6984 11.9984 20.425 17.02 20.5863C17.1734 20.5684 17.3267 20.5684 17.4417 20.5863H17.5759C19.9321 20.5128 22.1655 19.5856 23.8037 18.0007C25.4419 16.4159 26.3565 14.2976 26.3542 12.0938C26.3542 7.39962 22.2717 3.58337 17.25 3.58337ZM26.9867 25.3503C21.6392 22.0178 12.9184 22.0178 7.53255 25.3503C5.09838 26.8732 3.75671 28.9337 3.75671 31.1374C3.75671 33.3412 5.09838 35.3837 7.51338 36.8887C10.1967 38.5728 13.7234 39.4149 17.25 39.4149C20.7767 39.4149 24.3034 38.5728 26.9867 36.8887C29.4017 35.3657 30.7434 33.3232 30.7434 31.1016C30.7242 28.8978 29.4017 26.8553 26.9867 25.3503V25.3503ZM38.3142 13.1473C38.6209 16.6231 35.9759 19.669 32.315 20.081H32.2192C32.1042 20.081 31.9892 20.081 31.8934 20.1169C30.0342 20.2065 28.3284 19.651 27.0442 18.6298C29.0184 16.9815 30.1492 14.509 29.9192 11.8215C29.7877 10.424 29.28 9.08031 28.4434 7.91562C29.4477 7.45889 30.5558 7.23742 31.6721 7.2703C32.7884 7.30319 33.8794 7.58944 34.8509 8.10438C35.8225 8.61932 36.6454 9.34747 37.2488 10.226C37.8522 11.1046 38.2178 12.1072 38.3142 13.1473V13.1473Z" fill="black"/>
<path d="M42.1436 29.7236C41.9903 31.4616 40.802 32.9666 38.8086 33.9878C36.892 34.9732 34.477 35.4391 32.0811 35.3853C33.4611 34.2207 34.2661 32.7695 34.4195 31.2286C34.6111 29.007 33.4803 26.8749 31.2186 25.1728C29.9345 24.2232 28.4395 23.4707 26.8103 22.9153C31.0461 21.7686 36.3745 22.5391 39.652 25.0116C41.4153 26.3374 42.3161 28.0036 42.1436 29.7236Z" fill="black"/>
</svg>
