<svg width="40" height="40" viewBox="0 0 40 40" fill="none" xmlns="http://www.w3.org/2000/svg">
<path d="M38.6047 37.0323H36.7442V14.7348C36.7442 13.5081 36.2233 12.3606 35.3116 11.6088L33.0233 9.70941L32.986 4.86212C32.986 3.77396 32.1488 2.90342 31.1256 2.90342H24.7814L22.2884 0.845802C20.9488 -0.281934 19.0512 -0.281934 17.7116 0.845802L4.68837 11.6088C3.77674 12.3606 3.25581 13.5081 3.25581 14.715L3.16279 37.0323H1.39535C0.632558 37.0323 0 37.705 0 38.5161C0 39.3273 0.632558 40 1.39535 40H38.6047C39.3674 40 40 39.3273 40 38.5161C40 37.705 39.3674 37.0323 38.6047 37.0323ZM9.76744 20.2152V17.2474C9.76744 16.1593 10.6047 15.2689 11.6279 15.2689H15.3488C16.3721 15.2689 17.2093 16.1593 17.2093 17.2474V20.2152C17.2093 21.3033 16.3721 22.1936 15.3488 22.1936H11.6279C10.6047 22.1936 9.76744 21.3033 9.76744 20.2152ZM24.6512 37.0323H15.3488V31.5914C15.3488 29.9493 16.5954 28.6237 18.1395 28.6237H21.8605C23.4047 28.6237 24.6512 29.9493 24.6512 31.5914V37.0323ZM30.2326 20.2152C30.2326 21.3033 29.3953 22.1936 28.3721 22.1936H24.6512C23.6279 22.1936 22.7907 21.3033 22.7907 20.2152V17.2474C22.7907 16.1593 23.6279 15.2689 24.6512 15.2689H28.3721C29.3953 15.2689 30.2326 16.1593 30.2326 17.2474V20.2152Z" fill="#FD4F00"/>
</svg>
