<svg width="40" height="40" viewBox="0 0 40 40" fill="none" xmlns="http://www.w3.org/2000/svg">
<path d="M13.9834 30.8167V13.8834C13.9834 13.2167 14.1834 12.5667 14.55 12.0167L19.1 5.25004C19.8167 4.16671 21.6 3.40004 23.1167 3.96671C24.75 4.51671 25.8334 6.35004 25.4834 7.98337L24.6167 13.4334C24.55 13.9334 24.6834 14.3834 24.9667 14.7334C25.25 15.05 25.6667 15.25 26.1167 15.25H32.9667C34.2834 15.25 35.4167 15.7834 36.0834 16.7167C36.7167 17.6167 36.8334 18.7834 36.4167 19.9667L32.3167 32.45C31.8 34.5167 29.55 36.2 27.3167 36.2H20.8167C19.7 36.2 18.1334 35.8167 17.4167 35.1L15.2834 33.45C14.4667 32.8334 13.9834 31.85 13.9834 30.8167ZM8.68337 10.6317H6.96671C4.38337 10.6317 3.33337 11.6317 3.33337 14.0984V30.865C3.33337 33.3317 4.38337 34.3317 6.96671 34.3317H8.68337C11.2667 34.3317 12.3167 33.3317 12.3167 30.865V14.0984C12.3167 11.6317 11.2667 10.6317 8.68337 10.6317Z" fill="black"/>
</svg>
