<svg width="40" height="40" viewBox="0 0 40 40" fill="none" xmlns="http://www.w3.org/2000/svg">
<path d="M30 0H10C4.48 0 0 4.46223 0 9.96498V23.932C0 29.4347 4.48 33.8969 10 33.8969H13C13.54 33.8969 14.26 34.2571 14.6 34.6973L17.6 38.6793C18.92 40.4402 21.08 40.4402 22.4 38.6793L25.4 34.6973C25.78 34.1971 26.38 33.8969 27 33.8969H30C35.52 33.8969 40 29.4347 40 23.932V9.96498C40 4.46223 35.52 0 30 0ZM22 23.5118H10C9.18 23.5118 8.5 22.8314 8.5 22.011C8.5 21.1906 9.18 20.5103 10 20.5103H22C22.82 20.5103 23.5 21.1906 23.5 22.011C23.5 22.8314 22.82 23.5118 22 23.5118ZM30 13.5068H10C9.18 13.5068 8.5 12.8264 8.5 12.006C8.5 11.1856 9.18 10.5053 10 10.5053H30C30.82 10.5053 31.5 11.1856 31.5 12.006C31.5 12.8264 30.82 13.5068 30 13.5068Z" fill="black"/>
</svg>
