<svg width="55" height="54" viewBox="0 0 55 54" fill="none" xmlns="http://www.w3.org/2000/svg">
<g clip-path="url(#clip0_2274_300)">
<path d="M20.0464 36.5064L20.0464 13.6464C20.0464 12.7464 20.3164 11.8689 20.8114 11.1264L26.9539 1.99143C27.9214 0.528927 30.3289 -0.506075 32.3764 0.258925C34.5814 1.00143 36.0439 3.47643 35.5714 5.68143L34.4014 13.0389C34.3114 13.7139 34.4914 14.3214 34.8739 14.7939C35.0694 15.0125 35.3086 15.1875 35.576 15.3077C35.8435 15.4278 36.1332 15.4904 36.4264 15.4914H45.6739C47.4514 15.4914 48.9814 16.2114 49.8814 17.4714C50.7364 18.6864 50.8939 20.2614 50.3314 21.8589L44.7964 38.7114C44.0989 41.5014 41.0614 43.7739 38.0464 43.7739H29.2714C27.7639 43.7739 25.6489 43.2564 24.6814 42.2889L21.8014 40.0614C21.2568 39.6422 20.8155 39.1038 20.5113 38.4876C20.2071 37.8714 20.0481 37.1937 20.0464 36.5064V36.5064ZM12.8892 9.26343H10.5717C7.08416 9.26343 5.66666 10.6134 5.66666 13.9434V36.5559C5.66666 39.8859 7.08416 41.2359 10.5717 41.2359H12.8892C16.3767 41.2359 17.7942 39.8859 17.7942 36.5559V13.9209C17.7942 10.6134 16.3767 9.26343 12.8892 9.26343Z" fill="#FD4F00"/>
</g>
<defs>
<clipPath id="clip0_2274_300">
<rect width="54" height="54" fill="white" transform="translate(54.6666 54) rotate(-180)"/>
</clipPath>
</defs>
</svg>
