<svg width="40" height="40" viewBox="0 0 40 40" fill="none" xmlns="http://www.w3.org/2000/svg">
<path d="M26.9834 3.33325H13.0167C6.95004 3.33325 3.33337 6.94992 3.33337 13.0166V26.9666C3.33337 33.0499 6.95004 36.6666 13.0167 36.6666H26.9667C33.0334 36.6666 36.65 33.0499 36.65 26.9833V13.0166C36.6667 6.94992 33.05 3.33325 26.9834 3.33325ZM28.7667 16.5999L24.9167 21.5666C24.4334 22.1833 23.75 22.5833 22.9667 22.6666C22.1834 22.7666 21.4167 22.5499 20.8 22.0666L17.75 19.6666C17.7073 19.6291 17.6565 19.6021 17.6015 19.5876C17.5466 19.5731 17.489 19.5717 17.4334 19.5833C17.3667 19.5833 17.25 19.6166 17.15 19.7499L13.1834 24.8999C12.9334 25.2166 12.5667 25.3833 12.2 25.3833C11.9334 25.3833 11.6667 25.2999 11.4334 25.1166C11.3031 25.017 11.1938 24.8927 11.1116 24.7509C11.0294 24.6091 10.9759 24.4524 10.9542 24.2899C10.9326 24.1274 10.9431 23.9622 10.9853 23.8038C11.0275 23.6454 11.1004 23.4968 11.2 23.3666L15.1667 18.2166C15.65 17.5999 16.3334 17.1999 17.1167 17.0999C17.8834 16.9999 18.6667 17.2166 19.2834 17.6999L22.3334 20.0999C22.45 20.1999 22.5667 20.1999 22.65 20.1833C22.7167 20.1833 22.8334 20.1499 22.9334 20.0166L26.7834 15.0499C26.8829 14.9193 27.0076 14.8098 27.15 14.728C27.2924 14.6462 27.4498 14.5937 27.6128 14.5735C27.7758 14.5533 27.9412 14.5659 28.0993 14.6105C28.2574 14.6551 28.405 14.7308 28.5334 14.8333C29.0834 15.2833 29.1834 16.0666 28.7667 16.5999Z" fill="black"/>
</svg>
